<mxfile host="app.diagrams.net" modified="2023-11-06T19:44:30.926Z" agent="Mozilla/5.0 (X11; Ubuntu; Linux x86_64; rv:109.0) Gecko/20100101 Firefox/119.0" etag="4j5IkTT2AI0k4K8CFL4f" version="22.0.8" type="device">
  <diagram name="PÃ¡gina-1" id="tHL5_zkwgxNPSUXfbpaK">
    <mxGraphModel dx="954" dy="586" grid="1" gridSize="10" guides="1" tooltips="1" connect="1" arrows="1" fold="1" page="1" pageScale="1" pageWidth="827" pageHeight="1169" math="0" shadow="0">
      <root>
        <mxCell id="0" />
        <mxCell id="1" parent="0" />
        <mxCell id="A3tiqvou-YnnWNkAXNrI-1" value="" style="shape=umlLifeline;perimeter=lifelinePerimeter;whiteSpace=wrap;html=1;container=1;dropTarget=0;collapsible=0;recursiveResize=0;outlineConnect=0;portConstraint=eastwest;newEdgeStyle={&quot;curved&quot;:0,&quot;rounded&quot;:0};participant=umlActor;" vertex="1" parent="1">
          <mxGeometry x="130" y="80" width="20" height="300" as="geometry" />
        </mxCell>
        <mxCell id="A3tiqvou-YnnWNkAXNrI-6" value="" style="html=1;points=[[0,0,0,0,5],[0,1,0,0,-5],[1,0,0,0,5],[1,1,0,0,-5]];perimeter=orthogonalPerimeter;outlineConnect=0;targetShapes=umlLifeline;portConstraint=eastwest;newEdgeStyle={&quot;curved&quot;:0,&quot;rounded&quot;:0};" vertex="1" parent="A3tiqvou-YnnWNkAXNrI-1">
          <mxGeometry x="5" y="80" width="10" height="170" as="geometry" />
        </mxCell>
        <mxCell id="A3tiqvou-YnnWNkAXNrI-2" value=":System" style="shape=umlLifeline;perimeter=lifelinePerimeter;whiteSpace=wrap;html=1;container=1;dropTarget=0;collapsible=0;recursiveResize=0;outlineConnect=0;portConstraint=eastwest;newEdgeStyle={&quot;curved&quot;:0,&quot;rounded&quot;:0};" vertex="1" parent="1">
          <mxGeometry x="360" y="80" width="100" height="300" as="geometry" />
        </mxCell>
        <mxCell id="A3tiqvou-YnnWNkAXNrI-3" value="" style="html=1;points=[[0,0,0,0,5],[0,1,0,0,-5],[1,0,0,0,5],[1,1,0,0,-5]];perimeter=orthogonalPerimeter;outlineConnect=0;targetShapes=umlLifeline;portConstraint=eastwest;newEdgeStyle={&quot;curved&quot;:0,&quot;rounded&quot;:0};direction=east;" vertex="1" parent="A3tiqvou-YnnWNkAXNrI-2">
          <mxGeometry x="45" y="80" width="10" height="170" as="geometry" />
        </mxCell>
        <mxCell id="A3tiqvou-YnnWNkAXNrI-7" value="iniciarNovoPedido()" style="html=1;verticalAlign=bottom;endArrow=block;curved=0;rounded=0;" edge="1" parent="1" target="A3tiqvou-YnnWNkAXNrI-2">
          <mxGeometry width="80" relative="1" as="geometry">
            <mxPoint x="145" y="170" as="sourcePoint" />
            <mxPoint x="225" y="170" as="targetPoint" />
          </mxGeometry>
        </mxCell>
        <mxCell id="A3tiqvou-YnnWNkAXNrI-8" value="selecionarItems(item, qtd)" style="html=1;verticalAlign=bottom;endArrow=block;curved=0;rounded=0;" edge="1" parent="1">
          <mxGeometry width="80" relative="1" as="geometry">
            <mxPoint x="144" y="200" as="sourcePoint" />
            <mxPoint x="409" y="200" as="targetPoint" />
          </mxGeometry>
        </mxCell>
        <mxCell id="A3tiqvou-YnnWNkAXNrI-9" value="adicionarEnderecoEntrega(endereco)" style="html=1;verticalAlign=bottom;endArrow=block;curved=0;rounded=0;" edge="1" parent="1">
          <mxGeometry width="80" relative="1" as="geometry">
            <mxPoint x="144" y="230" as="sourcePoint" />
            <mxPoint x="409" y="230" as="targetPoint" />
          </mxGeometry>
        </mxCell>
        <mxCell id="A3tiqvou-YnnWNkAXNrI-10" value="selecionarMetodoPagamento()" style="html=1;verticalAlign=bottom;endArrow=block;curved=0;rounded=0;" edge="1" parent="1">
          <mxGeometry width="80" relative="1" as="geometry">
            <mxPoint x="143" y="260" as="sourcePoint" />
            <mxPoint x="408" y="260" as="targetPoint" />
          </mxGeometry>
        </mxCell>
        <mxCell id="A3tiqvou-YnnWNkAXNrI-11" value="finalizarPedido()" style="html=1;verticalAlign=bottom;endArrow=block;curved=0;rounded=0;" edge="1" parent="1">
          <mxGeometry width="80" relative="1" as="geometry">
            <mxPoint x="144" y="288" as="sourcePoint" />
            <mxPoint x="409" y="288" as="targetPoint" />
          </mxGeometry>
        </mxCell>
        <mxCell id="A3tiqvou-YnnWNkAXNrI-12" value="total do pedido + frete" style="html=1;verticalAlign=bottom;endArrow=open;dashed=1;endSize=8;curved=0;rounded=0;" edge="1" parent="1">
          <mxGeometry relative="1" as="geometry">
            <mxPoint x="405" y="318" as="sourcePoint" />
            <mxPoint x="144.5" y="318" as="targetPoint" />
          </mxGeometry>
        </mxCell>
      </root>
    </mxGraphModel>
  </diagram>
</mxfile>
